<svg xmlns="http://www.w3.org/2000/svg" width="220" height="180" viewBox="0 0 220 180" fill="none">
  <g opacity="1">
    <path d="M220 180C220 180 220 100 220 80C220 35.8 183.2 0 140 0C96.8 0 60 35.8 60 80" stroke="#F5F3EE" stroke-width="8" stroke-linecap="round" fill="none"/>
    <path d="M210 180C210 180 210 110 210 85C210 46.3 178.7 15 140 15C101.3 15 70 46.3 70 85" stroke="#3A5A3A" stroke-width="7" stroke-linecap="round" fill="none"/>
    <path d="M200 180C200 180 200 115 200 90C200 56.9 173.1 30 140 30C106.9 30 80 56.9 80 90" stroke="#4A6A4A" stroke-width="6" stroke-linecap="round" fill="none"/>
    <path d="M190 180C190 180 190 120 190 95C190 67.4 167.6 45 140 45C112.4 45 90 67.4 90 95" stroke="#5A7A5A" stroke-width="5" stroke-linecap="round" fill="none"/>
    <path d="M180 180C180 180 180 125 180 100C180 77.9 162.1 60 140 60C117.9 60 100 77.9 100 100" stroke="#E8722A" stroke-width="5" stroke-linecap="round" fill="none"/>
  </g>
</svg>
